<svg width="170" height="43" viewBox="0 0 170 43" fill="none" xmlns="http://www.w3.org/2000/svg">
<g clip-path="url(#clip0_156_4796)">
<path d="M19.0044 38.2412H18.9955C17.716 38.2412 16.5171 37.7401 15.6134 36.8275C14.7097 35.9238 14.2176 34.7159 14.2176 33.4454C14.2176 32.1659 14.7187 30.9669 15.6313 30.0633C16.535 29.1596 17.7339 28.6675 19.0044 28.6675H19.0134C20.2929 28.6675 21.4918 29.1685 22.3955 30.0812C23.2992 30.9848 23.7913 32.1927 23.7913 33.4633C23.7913 36.0938 21.635 38.2322 19.0044 38.2322M19.0313 25.0527H19.0134C14.3966 25.0527 10.6297 28.8017 10.6118 33.4275C10.6118 35.6733 11.4708 37.7848 13.0544 39.3685C14.6381 40.9612 16.7408 41.838 18.9866 41.8469H19.0134C21.2502 41.8469 23.3529 40.9791 24.9366 39.4043C26.5292 37.8206 27.406 35.718 27.415 33.4722C27.4239 28.8464 23.666 25.0706 19.0402 25.0527" fill="#FF6B00"/>
<path d="M19.0491 4.04413H19.076C24.516 4.06203 28.936 8.49992 28.9181 13.9399C28.9181 15.8457 28.3633 17.6799 27.3344 19.2547C24.7307 18.4404 21.9302 18.002 19.0402 17.9931H18.9686C16.1054 17.9931 13.3407 18.4136 10.7549 19.201C9.74385 17.6173 9.18016 15.7831 9.18016 13.8773C9.18016 11.2468 10.2181 8.76834 12.0881 6.90729C13.9491 5.05519 16.4186 4.03519 19.0491 4.03519M37.5791 25.5268C35.736 23.5494 33.4902 21.9299 30.976 20.6952C32.157 18.6373 32.7833 16.3378 32.7923 13.9399C32.8102 6.3615 26.6633 0.187817 19.0849 0.169922C15.4075 0.169922 11.9628 1.58361 9.35911 4.1694C6.75543 6.75519 5.32385 10.2089 5.3149 13.8773C5.3149 16.2573 5.93227 18.5926 7.08648 20.6415C4.57227 21.8583 2.32648 23.4689 0.474373 25.4283C0.116479 25.8131 -0.0535213 26.341 0.027005 26.8689C0.107531 27.4236 0.429637 27.8978 0.912794 28.1752C1.63753 28.5957 2.53227 28.4615 3.1049 27.862C6.80911 23.9431 12.7412 21.5989 18.9865 21.5989H19.0491C25.3123 21.6168 31.2623 23.9878 34.9575 27.9426C35.3065 28.3094 35.7717 28.5062 36.2549 28.5062C36.5591 28.5062 36.8633 28.4257 37.1407 28.2647L37.1765 28.2468C37.6417 27.9694 37.946 27.5041 38.0265 26.9673C38.107 26.4394 37.9459 25.9115 37.5881 25.5268" fill="#FF6B00"/>
<path d="M100.729 27.4057V27.3789H100.703C100.703 27.3789 100.721 27.3968 100.729 27.4057Z" fill="#FF6B00"/>
<path d="M104.479 27.4057C104.479 27.4057 104.496 27.3879 104.505 27.3789H104.479V27.4057Z" fill="#FF6B00"/>
<path d="M71.248 32.8457V32.8188C71.248 32.8188 71.2301 32.8367 71.2212 32.8457H71.248Z" fill="#FF6B00"/>
<path d="M71.248 32.8547V32.8279H71.2212C71.2212 32.8279 71.2391 32.8458 71.248 32.8547Z" fill="#FF6B00"/>
<path d="M149.439 32.9084C149.439 32.9084 149.475 32.8905 149.484 32.8815C149.502 32.8815 149.519 32.8726 149.537 32.8636L149.439 32.7742V32.9084Z" fill="#FF6B00"/>
<path d="M157.492 34.2505L157.59 34.34V34.2058C157.59 34.2058 157.554 34.2237 157.545 34.2327C157.527 34.2327 157.51 34.2416 157.492 34.2505Z" fill="#FF6B00"/>
<path d="M59.1512 18.9774C59.3033 18.6642 59.2765 18.2974 59.0617 18.0289L52.3601 9.09946L58.4533 1.80736C58.6859 1.52999 58.7307 1.16315 58.5786 0.841041C58.4265 0.518936 58.1133 0.313147 57.7554 0.313147H54.4986C54.2212 0.313147 53.9617 0.43841 53.7828 0.662094L48.137 7.82894V1.21683C48.137 0.715778 47.7254 0.304199 47.2243 0.304199H44.3433C43.8422 0.304199 43.4307 0.715778 43.4307 1.21683V18.5747C43.4307 19.0758 43.8422 19.4874 44.3433 19.4874H47.2243C47.7254 19.4874 48.137 19.0758 48.137 18.5747V10.9158L54.3375 19.1205C54.5075 19.3442 54.7759 19.4784 55.0622 19.4784H58.337C58.6859 19.4784 58.9991 19.2816 59.1512 18.9774Z" fill="#FF6B00"/>
<path d="M62.2735 0.304199H64.752C65.3693 0.304199 65.8614 0.805252 65.8614 1.41367V18.3689C65.8614 18.9863 65.3604 19.4784 64.752 19.4784H62.2735C61.6651 19.4784 61.1641 18.9774 61.1641 18.3689V1.41367C61.1641 0.805252 61.6651 0.304199 62.2735 0.304199Z" fill="#FF6B00"/>
<path d="M80.0522 9.89578C80.0522 13.0721 77.708 15.47 74.6033 15.47H73.6906C73.4401 15.47 73.2343 15.2642 73.2343 15.0137V4.76894C73.2343 4.51841 73.4401 4.31262 73.6906 4.31262H74.657C77.7348 4.31262 80.0522 6.71052 80.0522 9.88683M69.6643 0.304199C69.047 0.304199 68.5459 0.805252 68.5459 1.42262V18.351C68.5459 18.9684 69.047 19.4695 69.6643 19.4695H74.9075C80.437 19.4695 84.7764 15.2553 84.7764 9.87788C84.7764 4.50051 80.4459 0.304199 74.9075 0.304199H69.6643Z" fill="#FF6B00"/>
<path d="M92.3459 15.6938C90.977 15.6938 89.4917 15.1748 87.9349 14.1459C87.5859 13.9132 87.1654 13.8953 86.7985 14.0922C86.4317 14.289 86.208 14.6648 86.208 15.0764V17.2148C86.208 17.5906 86.3959 17.9396 86.7001 18.1453C87.4249 18.6375 89.4291 19.7827 92.2654 19.7827C96.417 19.7827 99.3159 17.2775 99.3159 13.6896C99.3159 10.7101 97.5891 9.35009 94.8064 8.14219L91.9522 6.85377C91.1022 6.44219 90.7712 6.0664 90.7712 5.50272C90.7712 4.18745 92.2833 4.08903 92.7396 4.08903C93.9564 4.08903 95.2717 4.57219 96.5333 5.48482C96.8733 5.7264 97.3117 5.76219 97.6875 5.5743C98.0633 5.37745 98.2959 5.00166 98.2959 4.58114V2.50535C98.2959 2.1564 98.1438 1.8343 97.8754 1.62851C96.8643 0.841139 95.0391 0.0090332 92.9185 0.0090332C89.0354 0.0090332 86.2259 2.46061 86.2259 5.84272C86.2259 8.84903 88.2748 10.0838 90.1985 11.0143L93.3122 12.428C94.3322 12.9111 94.8243 13.2869 94.8243 14.1011C94.8243 15.5417 93.0885 15.6938 92.3459 15.6938Z" fill="#FF6B00"/>
<path d="M111.377 4.20517H112.585C114.276 4.20517 115.287 5.03727 115.287 6.43306C115.287 7.82885 114.276 8.61622 112.585 8.61622H111.377V4.20517ZM107.798 19.1473H110.33C110.902 19.1473 111.377 18.682 111.377 18.1004V12.4189H112.218L116.611 18.6999C116.808 18.9773 117.13 19.1473 117.47 19.1473H120.333C120.727 19.1473 121.076 18.9325 121.263 18.5836C121.442 18.2346 121.416 17.8231 121.192 17.501L116.933 11.4973C118.919 10.4683 120.002 8.67885 120.002 6.43306C120.002 2.70201 117.103 0.295166 112.62 0.295166H107.807C107.225 0.295166 106.76 0.760429 106.76 1.34201V18.1004C106.76 18.6731 107.225 19.1473 107.807 19.1473" fill="#FF6B00"/>
<path d="M124.583 0.304199H126.883C127.527 0.304199 128.046 0.823147 128.046 1.46736V17.9931C128.046 18.6374 127.527 19.1563 126.883 19.1563H124.583C123.939 19.1563 123.42 18.6374 123.42 17.9931V1.46736C123.42 0.823147 123.939 0.304199 124.583 0.304199Z" fill="#FF6B00"/>
<path d="M136.707 15.2015H135.821C135.57 15.2015 135.365 14.9957 135.365 14.7452V4.71517C135.365 4.46464 135.57 4.25885 135.821 4.25885H136.751C139.767 4.25885 142.048 6.61201 142.048 9.72569C142.048 12.8394 139.749 15.1925 136.707 15.1925M137.002 0.295166H131.857C131.24 0.295166 130.739 0.796219 130.739 1.41359V18.0199C130.739 18.6373 131.24 19.1383 131.857 19.1383H137.002C142.442 19.1383 146.701 14.9957 146.701 9.71674C146.701 4.4378 142.451 0.304113 137.011 0.304113" fill="#FF6B00"/>
<path d="M149.403 18.0022C149.403 18.6374 149.922 19.1474 150.548 19.1474H160.507C161.097 19.1474 161.571 18.6732 161.571 18.0827V16.2485C161.571 15.6669 161.097 15.1837 160.507 15.1837H153.948V11.4885H159.845C160.453 11.4885 160.945 10.9964 160.945 10.388V8.62533C160.945 8.0169 160.453 7.5248 159.845 7.5248H153.948V4.23217H160.408C161.026 4.23217 161.518 3.73111 161.518 3.12269V1.39585C161.518 0.778482 161.017 0.286377 160.408 0.286377H150.566C149.922 0.286377 149.394 0.814272 149.394 1.45848V17.9843L149.403 18.0022Z" fill="#FF6B00"/>
<path d="M72.3661 24.292H72.3392C72.1245 24.0862 71.8382 23.9609 71.5161 23.9609H69.4582C69.1361 23.9609 68.8498 24.0862 68.635 24.292H68.6082V24.3188C68.4024 24.5336 68.2682 24.8199 68.2682 25.142V30.2688C68.2682 30.5462 68.0445 30.7788 67.7582 30.7788H62.3003C62.0229 30.7788 61.7903 30.5551 61.7903 30.2688V25.142C61.7903 24.8199 61.665 24.5336 61.4592 24.3188V24.292H61.4324C61.2177 24.0862 60.9313 23.9609 60.6092 23.9609H58.5782C58.2561 23.9609 57.9698 24.0862 57.755 24.292H57.7282V24.3188C57.5224 24.5336 57.3882 24.8199 57.3882 25.142V40.5494C57.3882 40.8715 57.5134 41.1578 57.7282 41.3725V41.3994H57.755C57.9698 41.6051 58.2561 41.7394 58.5782 41.7394H60.6092C60.9313 41.7394 61.2177 41.6141 61.4324 41.3994H61.4592V41.3725C61.665 41.1578 61.7903 40.8715 61.7903 40.5494V35.0467C61.7903 34.7694 62.0229 34.5367 62.3003 34.5367H67.7582C68.0356 34.5367 68.2682 34.7694 68.2682 35.0467V40.5494C68.2682 40.8715 68.3934 41.1578 68.6082 41.3725V41.3994H68.635C68.8498 41.6051 69.1361 41.7394 69.4582 41.7394H71.5161C71.8382 41.7394 72.1245 41.6141 72.3392 41.3994H72.3661V41.3725C72.5719 41.1578 72.6971 40.8715 72.6971 40.5494V25.142C72.6971 24.8199 72.5719 24.5336 72.3661 24.3188V24.292Z" fill="#FF6B00"/>
<path d="M83.6223 37.8653C80.938 37.8653 78.9249 35.7001 78.9249 32.8369C78.9249 29.9738 80.947 27.8085 83.6223 27.8085C86.2975 27.8085 88.3465 29.9738 88.3465 32.8369C88.3465 35.7001 86.3154 37.8653 83.6223 37.8653ZM83.6223 23.6748C78.5938 23.6748 74.5049 27.7906 74.5049 32.8369C74.5049 37.8832 78.5938 41.999 83.6223 41.999C88.6507 41.999 92.7665 37.8832 92.7665 32.8369C92.7665 27.7906 88.6686 23.6748 83.6223 23.6748Z" fill="#FF6B00"/>
<path d="M102.447 27.4057V27.3789H102.474C102.474 27.3789 102.456 27.3968 102.447 27.4057ZM98.6984 27.4057C98.6984 27.4057 98.6805 27.3879 98.6715 27.3789H98.6984V27.4057ZM107.744 27.3789V27.3521C107.95 27.1373 108.075 26.851 108.075 26.5289V25.1242C108.075 24.8021 107.95 24.5157 107.744 24.301V24.2742H107.717C107.503 24.0684 107.216 23.9431 106.894 23.9431H94.2515C93.9294 23.9431 93.6431 24.0684 93.4284 24.2742H93.4015V24.301C93.1957 24.5157 93.0615 24.8021 93.0615 25.1242V26.5289C93.0615 26.851 93.1868 27.1373 93.4015 27.3521V27.3789H93.4284C93.6431 27.5847 93.9294 27.71 94.2515 27.71H97.8573C98.1347 27.71 98.3673 27.9426 98.3673 28.22V40.5315C98.3673 40.8536 98.4926 41.14 98.6984 41.3547V41.3815H98.7252C98.9399 41.5873 99.2263 41.7215 99.5484 41.7215H101.606C101.928 41.7215 102.215 41.5963 102.429 41.3815H102.456V41.3547C102.662 41.14 102.796 40.8536 102.796 40.5315V28.22C102.796 27.9426 103.029 27.71 103.306 27.71H106.912C107.234 27.71 107.52 27.5847 107.735 27.3789H107.762H107.744Z" fill="#FF6B00"/>
<path d="M124.109 31.3069H118.866C118.338 31.3069 117.864 31.6648 117.721 32.1748L117.336 33.5527C117.237 33.9106 117.309 34.2953 117.533 34.5906C117.756 34.8948 118.105 35.0648 118.481 35.0648H120.432C120.718 35.0648 120.951 35.2974 120.951 35.5838V36.7916C120.951 36.9706 120.861 37.1316 120.727 37.2211C119.993 37.6864 119.116 37.9101 117.962 37.9101C115.188 37.9101 113.095 35.7448 113.095 32.8816C113.095 30.0185 115.242 27.8085 118.311 27.8085C119.743 27.8085 121.255 28.3453 122.57 29.3116C122.928 29.5801 123.402 29.6159 123.796 29.419C124.198 29.2132 124.458 28.8016 124.458 28.3543V26.3501C124.458 25.9743 124.279 25.6074 123.975 25.3927C123.268 24.8738 121.3 23.6748 118.311 23.6748C112.817 23.6748 108.675 27.6385 108.675 32.8906C108.675 38.1427 112.755 42.008 117.774 42.008C120.754 42.008 123.411 40.8359 125.048 38.7869C125.21 38.5811 125.299 38.3216 125.299 38.0532V32.5059C125.299 31.8527 124.762 31.3159 124.109 31.3159" fill="#FF6B00"/>
<path d="M141.342 23.8179H139.266C138.622 23.8179 138.094 24.3458 138.094 24.99V34.4384C138.094 36.6395 137.038 37.901 135.195 37.901C133.352 37.901 132.278 36.6395 132.278 34.4384V24.99C132.278 24.3458 131.75 23.8179 131.106 23.8179H129.057C128.413 23.8179 127.885 24.3458 127.885 24.99V34.4384C127.885 38.8852 130.828 41.8737 135.204 41.8737C139.579 41.8737 142.523 38.8852 142.523 34.4384V24.99C142.523 24.3458 141.995 23.8179 141.351 23.8179" fill="#FF6B00"/>
<path d="M161.249 24.3101V24.2832H161.223C161.008 24.0775 160.722 23.9432 160.399 23.9432H158.44C158.118 23.9432 157.832 24.0685 157.617 24.2832H157.59V24.3101C157.384 24.5248 157.25 24.8111 157.25 25.1332V33.4901C157.25 33.4901 157.25 33.5438 157.25 33.5706C157.232 33.5617 157.214 33.5438 157.187 33.5259L146.629 23.9343C146.307 23.639 146.03 23.648 145.878 23.7017L145.779 23.7464C145.636 23.8269 145.439 24.0148 145.439 24.4622V40.5496C145.439 40.8717 145.565 41.158 145.779 41.3727V41.3996H145.806C146.021 41.6054 146.307 41.7306 146.629 41.7306H148.589C148.911 41.7306 149.197 41.6054 149.412 41.3996H149.439V41.3727C149.645 41.158 149.77 40.8717 149.77 40.5496V32.2196C149.77 32.2196 149.77 32.1569 149.77 32.139C149.788 32.148 149.806 32.1659 149.833 32.1838L160.382 41.7485C160.605 41.9543 160.802 42.008 160.954 42.008C161.026 42.008 161.088 41.9901 161.133 41.9811L161.232 41.9364C161.375 41.8559 161.572 41.668 161.572 41.2206V25.1332C161.572 24.8111 161.446 24.5248 161.232 24.3101" fill="#FF6B00"/>
<path d="M164.784 39.422C164.784 37.9815 165.947 36.8184 167.387 36.8184C168.819 36.8184 169.964 37.9726 169.991 39.3684C170.018 40.8268 168.855 41.9899 167.459 42.0257C165.983 42.0615 164.775 40.8715 164.784 39.422ZM167.387 41.5605C168.568 41.5605 169.526 40.6031 169.526 39.422C169.526 38.241 168.568 37.2836 167.378 37.2836C166.206 37.2836 165.24 38.241 165.24 39.422C165.24 40.6031 166.197 41.5605 167.378 41.5605H167.387Z" fill="#FF6B00"/>
<path d="M168.38 40.5853C168.264 40.5853 168.166 40.5853 168.058 40.5853C167.987 40.5853 167.915 40.5853 167.835 40.5853C167.808 40.5853 167.799 40.5853 167.781 40.5584C167.62 40.3258 167.45 40.0932 167.289 39.8605C167.271 39.8337 167.253 39.8247 167.226 39.8247C167.119 39.8247 167.011 39.8247 166.895 39.8247V40.5763H166.394V38.25C166.394 38.25 166.421 38.25 166.43 38.25C166.77 38.25 167.11 38.25 167.459 38.25C167.682 38.25 167.879 38.3126 168.058 38.4558C168.452 38.7779 168.416 39.4758 167.879 39.7263C167.852 39.7353 167.826 39.7532 167.799 39.7621C167.987 40.0305 168.175 40.2989 168.371 40.5763L168.38 40.5853ZM166.913 38.7153V39.3684C166.913 39.3684 166.922 39.3684 166.931 39.3684C167.074 39.3684 167.226 39.3684 167.369 39.3684C167.459 39.3684 167.548 39.3595 167.629 39.3237C167.817 39.2432 167.879 39.0195 167.772 38.8674C167.7 38.7689 167.593 38.7242 167.477 38.7153C167.342 38.7153 167.217 38.7153 167.083 38.7153C167.029 38.7153 166.976 38.7153 166.922 38.7153H166.913Z" fill="#FF6B00"/>
<path d="M52.1901 31.6468C51.7786 31.4052 51.0896 31.0473 50.6601 30.8505L49.5507 30.3495C49.148 30.1616 48.4859 29.8126 48.1012 29.571C48.1012 29.571 47.7075 29.3116 47.7075 28.7837C47.7075 27.5937 49.0854 27.5042 49.5059 27.5042C51.1254 27.5042 53.4338 29.231 53.4517 29.2489C53.7201 29.4458 53.9975 29.5084 54.2301 29.41C54.248 29.401 54.3286 29.3563 54.3286 29.3563C54.5343 29.2221 54.6596 28.9716 54.6596 28.6405V26.511C54.6596 25.9295 54.2749 25.2405 53.7828 24.9363C53.7022 24.8826 51.7249 23.6658 49.658 23.6658C46.0612 23.6658 43.4486 25.9473 43.4486 29.0879C43.4486 31.7363 46.2491 33.3826 46.3743 33.4542C46.7859 33.6958 47.4749 34.0447 47.9043 34.2416L49.2465 34.85C49.658 35.0379 50.3291 35.3689 50.7407 35.5926C50.7675 35.6105 51.3938 35.9595 51.3938 36.7289C51.3938 38.0352 49.8101 38.1695 49.1301 38.1695C47.2691 38.1695 44.6833 36.4247 44.6565 36.4068C44.388 36.2189 44.0928 36.1742 43.8601 36.2816L43.7707 36.3352C43.7528 36.3531 43.7259 36.3621 43.708 36.38C43.6722 36.4068 43.6365 36.4516 43.6007 36.4963C43.4933 36.6395 43.4307 36.8273 43.4307 37.06V39.1358C43.4307 39.7174 43.8333 40.3974 44.3433 40.6837C44.4417 40.7374 46.777 42.0079 49.0586 42.0079C52.9149 42.0079 55.5991 39.6816 55.5991 36.3531C55.5991 33.7137 52.3243 31.7273 52.1812 31.6468H52.1901Z" fill="#FF6B00"/>
</g>
<defs>
<clipPath id="clip0_156_4796">
<rect width="170" height="42.0258" fill="white"/>
</clipPath>
</defs>
</svg>
